<svg width="20" height="20" viewBox="0 0 20 20" fill="none" xmlns="http://www.w3.org/2000/svg">
<path d="M4.58317 14.5834H3.33317V5.41669H9.83317L9.1665 6.08335C8.99984 6.25002 8.9165 6.41669 8.9165 6.66669C8.9165 7.16669 9.24984 7.50002 9.74984 7.50002C9.99984 7.50002 10.1665 7.41669 10.3332 7.25002L12.4165 5.16669C12.7498 4.83335 12.7498 4.33335 12.4165 4.00002L10.3332 1.91669C9.99984 1.58335 9.49984 1.58335 9.1665 1.91669C8.83317 2.25002 8.83317 2.75002 9.1665 3.08335L9.83317 3.75002H2.49984C1.99984 3.75002 1.6665 4.08335 1.6665 4.58335V15.4167C1.6665 15.9167 1.99984 16.25 2.49984 16.25H4.58317C5.08317 16.25 5.4165 15.9167 5.4165 15.4167C5.4165 14.9167 5.08317 14.5834 4.58317 14.5834ZM17.4998 3.75002H15.4165C14.9165 3.75002 14.5832 4.08335 14.5832 4.58335C14.5832 5.08335 14.9165 5.41669 15.4165 5.41669H16.6665V14.5834H9.6665L10.3332 13.9167C10.6665 13.5834 10.6665 13.0834 10.3332 12.75C9.99984 12.4167 9.49984 12.4167 9.1665 12.75L7.08317 14.8334C6.74984 15.1667 6.74984 15.6667 7.08317 16L9.1665 18.0834C9.33317 18.25 9.49984 18.3334 9.74984 18.3334C9.99984 18.3334 10.1665 18.25 10.3332 18.0834C10.6665 17.75 10.6665 17.25 10.3332 16.9167L9.6665 16.25H17.4998C17.9998 16.25 18.3332 15.9167 18.3332 15.4167V4.58335C18.3332 4.08335 17.9998 3.75002 17.4998 3.75002Z" fill="#72767C"/>
</svg>
