<svg width="16" height="16" viewBox="0 0 16 16" fill="none" xmlns="http://www.w3.org/2000/svg">
<path d="M13.2254 6.38738C13.1701 6.27771 13.0856 6.18549 12.9811 6.12093C12.8767 6.05637 12.7564 6.022 12.6336 6.02163H9.30855V2.03163C9.31568 1.88578 9.27462 1.74164 9.19169 1.62145C9.10876 1.50127 8.98858 1.41172 8.8497 1.36662C8.71618 1.3227 8.57218 1.3222 8.43837 1.36521C8.30456 1.40823 8.18781 1.49253 8.1049 1.60602L2.78489 8.92104C2.71823 9.01737 2.67821 9.12961 2.66887 9.24638C2.65952 9.36316 2.6812 9.48033 2.73169 9.58604C2.77819 9.7069 2.85896 9.81156 2.9641 9.88716C3.06924 9.96277 3.19416 10.006 3.32354 10.0116H6.64854V14.0016C6.64865 14.1419 6.69308 14.2785 6.77549 14.392C6.8579 14.5054 6.97407 14.5899 7.10739 14.6334C7.17421 14.6541 7.24361 14.6653 7.31354 14.6666C7.41847 14.6669 7.52198 14.6424 7.61559 14.595C7.70921 14.5476 7.79029 14.4787 7.8522 14.394L13.1722 7.07898C13.2439 6.97976 13.2867 6.86269 13.2961 6.74067C13.3055 6.61864 13.281 6.49639 13.2254 6.38738V6.38738ZM7.97855 11.9534V9.34664C7.97855 9.17027 7.90848 9.00112 7.78377 8.87641C7.65906 8.7517 7.48991 8.68164 7.31354 8.68164H4.65354L7.97855 4.07983V6.68663C7.97855 6.863 8.04861 7.03215 8.17332 7.15686C8.29803 7.28157 8.46718 7.35163 8.64355 7.35163H11.3036L7.97855 11.9534Z" fill="#72767C"/>
</svg>
