<svg width="16" height="16" viewBox="0 0 16 16" fill="none" xmlns="http://www.w3.org/2000/svg">
<path d="M9.33736 7.33718H8.6707V6.67051C8.6707 6.4937 8.60046 6.32413 8.47543 6.19911C8.35041 6.07408 8.18084 6.00385 8.00403 6.00385C7.82722 6.00385 7.65765 6.07408 7.53262 6.19911C7.4076 6.32413 7.33736 6.4937 7.33736 6.67051V7.33718H6.6707C6.49388 7.33718 6.32432 7.40742 6.19929 7.53244C6.07427 7.65747 6.00403 7.82703 6.00403 8.00385C6.00403 8.18066 6.07427 8.35023 6.19929 8.47525C6.32432 8.60027 6.49388 8.67051 6.6707 8.67051H7.33736V9.33718C7.33736 9.51399 7.4076 9.68356 7.53262 9.80858C7.65765 9.93361 7.82722 10.0038 8.00403 10.0038C8.18084 10.0038 8.35041 9.93361 8.47543 9.80858C8.60046 9.68356 8.6707 9.51399 8.6707 9.33718V8.67051H9.33736C9.51417 8.67051 9.68374 8.60027 9.80877 8.47525C9.93379 8.35023 10.004 8.18066 10.004 8.00385C10.004 7.82703 9.93379 7.65747 9.80877 7.53244C9.68374 7.40742 9.51417 7.33718 9.33736 7.33718ZM14.4774 7.53051L12.9107 6.00385V3.76385C12.9107 3.58703 12.8405 3.41746 12.7154 3.29244C12.5904 3.16742 12.4208 3.09718 12.244 3.09718H10.0374L8.47736 1.53051C8.41539 1.46803 8.34165 1.41843 8.26041 1.38458C8.17917 1.35074 8.09204 1.33331 8.00403 1.33331C7.91602 1.33331 7.82888 1.35074 7.74764 1.38458C7.6664 1.41843 7.59267 1.46803 7.53069 1.53051L6.00403 3.09718H3.76403C3.58722 3.09718 3.41765 3.16742 3.29262 3.29244C3.1676 3.41746 3.09736 3.58703 3.09736 3.76385V6.00385L1.53069 7.53051C1.46821 7.59249 1.41861 7.66622 1.38477 7.74746C1.35092 7.8287 1.3335 7.91584 1.3335 8.00385C1.3335 8.09185 1.35092 8.17899 1.38477 8.26023C1.41861 8.34147 1.46821 8.4152 1.53069 8.47718L3.09736 10.0372V12.2438C3.09736 12.4207 3.1676 12.5902 3.29262 12.7153C3.41765 12.8403 3.58722 12.9105 3.76403 12.9105H6.00403L7.56403 14.4772C7.626 14.5397 7.69974 14.5893 7.78098 14.6231C7.86222 14.657 7.94935 14.6744 8.03736 14.6744C8.12537 14.6744 8.21251 14.657 8.29375 14.6231C8.37499 14.5893 8.44872 14.5397 8.5107 14.4772L10.0707 12.9105H12.2774C12.4542 12.9105 12.6237 12.8403 12.7488 12.7153C12.8738 12.5902 12.944 12.4207 12.944 12.2438V10.0372L14.5107 8.47718C14.571 8.41303 14.6181 8.33756 14.6491 8.25512C14.6801 8.17268 14.6945 8.08492 14.6914 7.9969C14.6883 7.90887 14.6678 7.82234 14.6311 7.74228C14.5943 7.66223 14.5421 7.59026 14.4774 7.53051ZM11.7774 9.29051C11.7144 9.35226 11.6643 9.42589 11.6299 9.50714C11.5956 9.58839 11.5777 9.67564 11.5774 9.76385V11.5772H9.76403C9.67582 11.5775 9.58857 11.5954 9.50732 11.6297C9.42607 11.6641 9.35244 11.7142 9.2907 11.7772L8.00403 13.0638L6.71736 11.7772C6.65562 11.7142 6.58199 11.6641 6.50074 11.6297C6.41949 11.5954 6.33223 11.5775 6.24403 11.5772H4.4307V9.76385C4.43033 9.67564 4.41246 9.58839 4.37813 9.50714C4.3438 9.42589 4.29369 9.35226 4.2307 9.29051L2.94403 8.00385L4.2307 6.71718C4.29369 6.65544 4.3438 6.58181 4.37813 6.50056C4.41246 6.41931 4.43033 6.33205 4.4307 6.24384V4.43051H6.24403C6.33223 4.43015 6.41949 4.41228 6.50074 4.37795C6.58199 4.34362 6.65562 4.2935 6.71736 4.23051L8.00403 2.94385L9.2907 4.23051C9.35244 4.2935 9.42607 4.34362 9.50732 4.37795C9.58857 4.41228 9.67582 4.43015 9.76403 4.43051H11.5774V6.24384C11.5777 6.33205 11.5956 6.41931 11.6299 6.50056C11.6643 6.58181 11.7144 6.65544 11.7774 6.71718L13.064 8.00385L11.7774 9.29051Z" fill="#72767C"/>
</svg>
