<svg width="20" height="20" viewBox="0 0 20 20" fill="none" xmlns="http://www.w3.org/2000/svg">
<path fill-rule="evenodd" clip-rule="evenodd" d="M16.6244 5.90868C16.6331 5.25776 16.3891 4.60411 15.8924 4.10744C15.3957 3.61077 14.7421 3.36677 14.0912 3.37543C14.0909 3.37544 14.0914 3.37543 14.0912 3.37543C13.7314 3.38032 13.3717 3.46241 13.0407 3.62168C12.922 3.67875 12.8069 3.74574 12.6967 3.82264C12.6542 3.85226 12.5995 3.85902 12.5517 3.83919C12.5039 3.81937 12.47 3.77594 12.4609 3.72501C12.4374 3.59266 12.4034 3.46392 12.3598 3.33965C12.2383 2.99292 12.0426 2.6811 11.7916 2.42325C11.7915 2.42307 11.7918 2.42342 11.7916 2.42325C11.3375 1.95686 10.7022 1.66666 9.99984 1.66666C9.29744 1.66666 8.66271 1.95633 8.20857 2.42272C8.20839 2.4229 8.20874 2.42254 8.20857 2.42272C7.95763 2.68057 7.76137 2.99292 7.63987 3.33965C7.59632 3.46391 7.56232 3.59266 7.53873 3.72501C7.52965 3.77594 7.49574 3.81937 7.44796 3.83918C7.40014 3.85902 7.34548 3.85226 7.30302 3.82264C7.19275 3.74574 7.07767 3.67875 6.95902 3.62168C6.62793 3.46241 6.26902 3.38033 5.90925 3.37544C5.909 3.37544 5.90949 3.37544 5.90925 3.37544C5.25833 3.36678 4.60395 3.61077 4.10728 4.10744C3.61061 4.60411 3.36661 5.25776 3.37527 5.90868C3.37528 5.90892 3.37527 5.90843 3.37527 5.90868C3.38016 6.26844 3.46225 6.62809 3.62151 6.95917C3.67859 7.07783 3.74558 7.19291 3.82248 7.30318C3.8521 7.34564 3.85886 7.4003 3.83902 7.44812C3.81921 7.49591 3.77578 7.52981 3.72485 7.53889C3.59249 7.56248 3.46375 7.59649 3.33948 7.64003C2.99276 7.76153 2.68094 7.95728 2.42309 8.20821C2.42291 8.20838 2.42326 8.20804 2.42309 8.20821C1.9567 8.66236 1.6665 9.2976 1.6665 10C1.6665 10.7024 1.95617 11.3371 2.42256 11.7913C2.42274 11.7914 2.42239 11.7911 2.42256 11.7913C2.68041 12.0422 2.99276 12.2385 3.33948 12.36C3.46374 12.4035 3.59249 12.4375 3.72485 12.4611C3.77578 12.4702 3.81921 12.5041 3.83902 12.5519C3.85886 12.5997 3.8521 12.6544 3.82248 12.6968C3.74558 12.8071 3.67859 12.9222 3.62151 13.0408C3.46225 13.3719 3.38017 13.7308 3.37528 14.0906C3.37528 14.0908 3.37529 14.0903 3.37528 14.0906C3.36662 14.7415 3.61061 15.3959 4.10728 15.8926C4.60395 16.3892 5.2576 16.6332 5.90852 16.6246C5.90876 16.6246 5.90827 16.6246 5.90852 16.6246C6.26828 16.6197 6.62792 16.5376 6.959 16.3783C7.07766 16.3213 7.19274 16.2543 7.30301 16.1774C7.34548 16.1477 7.40013 16.141 7.44796 16.1608C7.49574 16.1806 7.52965 16.2241 7.53873 16.275C7.56232 16.4073 7.59633 16.5361 7.63988 16.6604C7.76138 17.0071 7.95712 17.3189 8.20805 17.5767C8.20822 17.5769 8.20788 17.5766 8.20805 17.5767C8.66219 18.0431 9.29744 18.3333 9.99984 18.3333C10.7022 18.3333 11.337 18.0437 11.7911 17.5773C11.7913 17.5771 11.7909 17.5774 11.7911 17.5773C12.042 17.3194 12.2383 17.0071 12.3598 16.6604C12.4033 16.5361 12.4374 16.4073 12.4609 16.275C12.47 16.2241 12.5039 16.1806 12.5517 16.1608C12.5995 16.141 12.6542 16.1477 12.6967 16.1774C12.8069 16.2543 12.922 16.3213 13.0407 16.3783C13.3718 16.5376 13.7307 16.6197 14.0904 16.6246C14.0907 16.6246 14.0902 16.6245 14.0904 16.6246C14.7413 16.6332 15.3957 16.3892 15.8924 15.8926C16.3891 15.3959 16.6331 14.7422 16.6244 14.0913C16.6244 14.0911 16.6244 14.0916 16.6244 14.0913C16.6195 13.7316 16.5374 13.3719 16.3782 13.0408C16.3211 12.9222 16.2541 12.8071 16.1772 12.6968C16.1476 12.6544 16.1408 12.5997 16.1607 12.5519C16.1805 12.5041 16.2239 12.4702 16.2748 12.4611C16.4072 12.4375 16.5359 12.4035 16.6602 12.36C17.0069 12.2385 17.3187 12.0427 17.5766 11.7918C17.5768 11.7916 17.5764 11.792 17.5766 11.7918C18.043 11.3376 18.3332 10.7024 18.3332 10C18.3332 9.2976 18.0435 8.66287 17.5771 8.20873C17.5769 8.20855 17.5773 8.2089 17.5771 8.20873C17.3193 7.9578 17.0069 7.76153 16.6602 7.64003C16.5359 7.59649 16.4072 7.56248 16.2748 7.53889C16.2239 7.52981 16.1805 7.4959 16.1607 7.44812C16.1408 7.40029 16.1476 7.34564 16.1772 7.30317C16.2541 7.19291 16.3211 7.07782 16.3782 6.95916C16.5374 6.62808 16.6195 6.26844 16.6244 5.90868C16.6244 5.90843 16.6244 5.90892 16.6244 5.90868ZM14.7139 5.28595C14.4252 4.99727 13.9741 4.9637 13.6501 5.18968C13.1585 5.53253 12.5056 5.62435 11.9133 5.37873C11.3225 5.13376 10.9254 4.6082 10.8201 4.01749C10.7508 3.62858 10.4081 3.33333 9.99984 3.33333C9.59158 3.33333 9.24885 3.62858 9.17953 4.01749C9.07423 4.6082 8.67715 5.13375 8.08637 5.37873C7.49407 5.62435 6.8412 5.53253 6.34961 5.18968C6.02559 4.9637 5.57447 4.99727 5.28579 5.28595C4.99711 5.57463 4.96354 6.02575 5.18952 6.34977C5.53237 6.84137 5.62418 7.49423 5.37857 8.08653C5.13359 8.67731 4.60804 9.0744 4.01732 9.17969C3.62841 9.24902 3.33317 9.59174 3.33317 10C3.33317 10.4083 3.62841 10.751 4.01732 10.8203C4.60804 10.9256 5.13359 11.3227 5.37857 11.9135C5.62419 12.5058 5.53237 13.1586 5.18952 13.6502C4.96354 13.9742 4.99711 14.4254 5.28579 14.714C5.57448 15.0027 6.02558 15.0363 6.3496 14.8103C6.8412 14.4675 7.49406 14.3756 8.08637 14.6213C8.67714 14.8662 9.07424 15.3918 9.17953 15.9825C9.24886 16.3714 9.59158 16.6667 9.99984 16.6667C10.4081 16.6667 10.7508 16.3714 10.8201 15.9825C10.9254 15.3918 11.3225 14.8662 11.9133 14.6213C12.5056 14.3756 13.1585 14.4675 13.6501 14.8103C13.9741 15.0363 14.4252 15.0027 14.7139 14.714C15.0026 14.4254 15.0361 13.9742 14.8102 13.6502C14.4673 13.1586 14.3755 12.5058 14.6211 11.9135C14.8661 11.3227 15.3916 10.9256 15.9824 10.8203C16.3713 10.751 16.6665 10.4083 16.6665 10C16.6665 9.59174 16.3713 9.24902 15.9824 9.17969C15.3916 9.0744 14.8661 8.6773 14.6211 8.08653C14.3755 7.49422 14.4673 6.84136 14.8102 6.34976C15.0361 6.02575 15.0026 5.57464 14.7139 5.28595Z" fill="#72767C"/>
<path fill-rule="evenodd" clip-rule="evenodd" d="M9.99984 11.6667C10.9203 11.6667 11.6665 10.9205 11.6665 10C11.6665 9.07952 10.9203 8.33333 9.99984 8.33333C9.07936 8.33333 8.33317 9.07952 8.33317 10C8.33317 10.9205 9.07936 11.6667 9.99984 11.6667ZM9.99984 13.3333C11.8408 13.3333 13.3332 11.8409 13.3332 10C13.3332 8.15905 11.8408 6.66666 9.99984 6.66666C8.15889 6.66666 6.6665 8.15905 6.6665 10C6.6665 11.8409 8.15889 13.3333 9.99984 13.3333Z" fill="#72767C"/>
</svg>
