<svg width="20" height="20" viewBox="0 0 20 20" fill="none" xmlns="http://www.w3.org/2000/svg">
<path fill-rule="evenodd" clip-rule="evenodd" d="M9.19107 12.5006C9.65098 12.4832 10.0379 12.842 10.0552 13.3019C10.0944 14.3387 10.1494 15.0955 10.2034 15.638C10.2566 16.1724 10.5792 16.4938 11.0289 16.5488C11.5591 16.6136 12.307 16.6667 13.3334 16.6667C14.3598 16.6667 15.1078 16.6136 15.638 16.5488C16.0874 16.4939 16.4101 16.1722 16.4634 15.6378C16.5637 14.6307 16.6667 12.8907 16.6667 10C16.6667 7.10932 16.5637 5.36934 16.4634 4.36223C16.4101 3.82777 16.0874 3.50614 15.638 3.4512C15.1078 3.38638 14.3598 3.33333 13.3334 3.33333C12.307 3.33333 11.5591 3.38638 11.0289 3.45119C10.5792 3.50616 10.2566 3.82765 10.2034 4.36198C10.1494 4.90454 10.0944 5.66128 10.0552 6.6981C10.0379 7.15801 9.65098 7.51677 9.19107 7.49941C8.73116 7.48204 8.3724 7.09514 8.38976 6.63523C8.42994 5.57104 8.4869 4.77952 8.54495 4.19676C8.667 2.97162 9.52117 1.95642 10.8266 1.79684C11.4343 1.72255 12.2507 1.66667 13.3334 1.66667C14.4161 1.66667 15.2325 1.72256 15.8402 1.79685C17.1458 1.95645 17.9998 2.97212 18.1218 4.19702C18.2293 5.27557 18.3334 7.07373 18.3334 10C18.3334 12.9263 18.2293 14.7244 18.1218 15.803C17.9998 17.0279 17.1458 18.0436 15.8402 18.2032C15.2325 18.2774 14.4161 18.3333 13.3334 18.3333C12.2507 18.3333 11.4343 18.2774 10.8266 18.2032C9.52117 18.0436 8.667 17.0284 8.54495 15.8032C8.4869 15.2205 8.42994 14.429 8.38976 13.3648C8.3724 12.9049 8.73116 12.5179 9.19107 12.5006Z" fill="#72767C"/>
<path fill-rule="evenodd" clip-rule="evenodd" d="M6.00576 12.3274C6.3312 12.6528 6.3312 13.1805 6.00576 13.5059C5.68032 13.8314 5.15269 13.8314 4.82725 13.5059L1.91058 10.5893C1.58514 10.2638 1.58514 9.73618 1.91058 9.41074L4.82725 6.49408C5.15269 6.16864 5.68032 6.16864 6.00576 6.49408C6.3312 6.81951 6.3312 7.34715 6.00576 7.67259L4.51168 9.16667H12.4998C12.9601 9.16667 13.3332 9.53976 13.3332 10C13.3332 10.4602 12.9601 10.8333 12.4998 10.8333L4.51168 10.8333L6.00576 12.3274Z" fill="#72767C"/>
</svg>
